<?xml version="1.0"?>
<svg version="1.1" id="圖層_1" xmlns="http://www.w3.org/2000/svg" x="0" y="0" viewBox="0 0 100 100" xml:space="preserve"><path d="M44.8 81.7c-9.6 9.6-21.8 9.8-29.1 2.6s-7-19.5 2.6-29.1L36.9 37 63 63.1 44.8 81.7z" fill="#77a4bd" stroke="#333" stroke-width="3.5" stroke-miterlimit="10"/><path d="M84.2 15.8c7.2 7.2 7 19.5-2.6 29.1L63.1 63.1 36.9 36.9l18.2-18.6c9.7-9.6 21.9-9.8 29.1-2.5z" fill="#e0e0e0" stroke="#333" stroke-width="3.5" stroke-miterlimit="10"/><path d="M66.8 17.6c2.3-.8 4.7-1.3 6.9-1.3" stroke-linecap="round" fill="none" stroke="#fff" stroke-width="3.5" stroke-miterlimit="10"/><path d="M60.7 20.9c.3-.2.6-.5 1-.7" stroke-linecap="round" fill="none" stroke="#fff" stroke-width="3.5" stroke-miterlimit="10"/><path d="M81.7 44.8L63.1 63.1 44.8 81.7c-9.6 9.6-21.8 9.8-29.1 2.6l68.5-68.5c7.3 7.2 7.1 19.4-2.5 29z" opacity=".11" stroke="#000" stroke-width="3.5" stroke-miterlimit="10"/><path stroke-linecap="round" fill="none" stroke="#fff" stroke-width="3.5" stroke-miterlimit="10" d="M26.8 54.9l-.7.7"/><path stroke-linecap="round" fill="none" stroke="#fff" stroke-width="3.5" stroke-miterlimit="10" d="M36 45.7l-5 5"/><metadata xmlns:d="https://loading.io/stock/"><d:name>drug</d:name><d:tags>drug,pill,cure,remedy,pharmacy,treatment,medicine</d:tags><d:license>by</d:license><d:slug>fe50b</d:slug></metadata></svg>